<svg xmlns="http://www.w3.org/2000/svg" viewBox="0 0 24 24" fill="#1A3A8C" width="24" height="24"><path d="M19.14 12.94a7.5 7.5 0 0 0 .05-.94 7.5 7.5 0 0 0-.05-.94l2.03-1.58a.5.5 0 0 0 .12-.64l-1.92-3.32a.5.5 0 0 0-.61-.22l-2.39.96a7.2 7.2 0 0 0-1.62-.94L14.5 3.5a.5.5 0 0 0-.5-.41h-3.84a.5.5 0 0 0-.5.41l-.36 2.54a7.2 7.2 0 0 0-1.62.94l-2.39-.96a.5.5 0 0 0-.61.22l-1.92 3.32a.5.5 0 0 0 .12.64l2.03 1.58a7.5 7.5 0 0 0 0 1.88L3.78 16.5a.5.5 0 0 0-.12.64l1.92 3.32a.5.5 0 0 0 .61.22l2.39-.96c.5.4 1.04.72 1.62.94l.36 2.54c.04.24.25.41.5.41h3.84c.25 0 .46-.17.5-.41l.36-2.54c.58-.22 1.12-.54 1.62-.94l2.39.96c.24.1.51.03.61-.22l1.92-3.32a.5.5 0 0 0-.12-.64zM12 15.5A3.5 3.5 0 1 1 12 8a3.5 3.5 0 0 1 0 7.5z"/></svg>
